{"title":"From Paris with Love*2010*[BluRay][1080p][ENG, POL, Multisub]","uid":5868280,"size":14036581904,"categoryP":"video","categoryS":"hd___movies","magnet":"?xt=urn:btih:141a401f8f90a059564fd427c724a1fbcde40ec0&amp;dn=From+Paris+with+Love%2A2010%2A%5BBluRay%5D%5B1080p%5D%5BENG%2C+POL%2C+Multisub%5D&amp;tr=udp%3A%2F%2Ftracker.openbittorrent.com%3A80&amp;tr=udp%3A%2F%2Fopen.demonii.com%3A1337&amp;tr=udp%3A%2F%2Ftracker.coppersurfer.tk%3A6969&amp;tr=udp%3A%2F%2Fexodus.desync.com%3A6969","seeders":0,"leechers":2,"uploader":"albedo040","files":1,"time":1286288687,"description":"From Paris with Love*2010*[BluRay][1080p][ENG, POL, Multisub]\n\nGeneral information:\nCountry: France\nRelease: 4 February 2010\nGenre: Action, Crime, Thriller\nDirector: Pierre Morel\nScreenplay: Luc Besson, Adi Hasak\nOriginal Music: Dave Buckley\nCinematography by: Michel Abramowicz\nDuration: 1h 32mn\nLanguage: English, Polish\nSubtitles: English, Polish, Croatian, Hungarian, Norwegian, Romanian, Spanish, Serbian, Swedish\nRating: 6.7/10 - 6230 votes\n\nCast:\nJohn Travolta  ...  Charlie Wax  \nJonathan Rhys Meyers  ...  James Reece  \nKasia Smutniak  ...  Caroline  \nRichard Durden  ...  Ambassador Bennington  \nYin Bing  ...  M. Wong  \nAmber Rose Revah  ...  Nichole  \nEric Godon  ...  Foreign Minister  \nFranÃƒÂ§ois Bredon  ...  The Thug  \nChems Dahmani  ...  Rashid (as Chems Eddine Dahmani)  \nSami Darr  ...  The Pimp  \nJulien Hagnery  ...  Chinese Punk  \nMostÃƒÂ©fa Stiti  ...  Dir Yasin  \nRebecca Dayan  ...  Foreign Minister's Aide  \nMichaÃƒÂ«l Vander-Meiren  ...  Airport Security Official  \nDidier Constant  ...  Customs Official  \n\nPlot:\nIn Paris, a young employee in the office of the US Ambassador hooks up with an American spy looking to stop a terrorist attack in the city. \n\nSpecifications:\nGeneral\nFormat                           : Matroska\nOverall bit rate                 : 20.2 Mbps\n\nVideo\nFormat                           : AVC\nFormat/Info                      : Advanced Video Codec\nFormat profile                   : &lt;a class=&quot;__cf_email__&quot; href=&quot;/cdn-cgi/l/email-protection&quot; data-cfemail=&quot;226a4b454a626e160c13&quot;&gt;[email&amp;#160;protected]&lt;/a&gt;&lt;script cf-hash='f9e31' type=&quot;text/javascript&quot;&gt;\n/* &lt;![CDATA[ */!function(){try{var t=&quot;currentScript&quot;in document?document.currentScript:function(){for(var t=document.getElementsByTagName(&quot;script&quot;),e=t.length;e--;)if(t[e].getAttribute(&quot;cf-hash&quot;))return t[e]}();if(t&amp;&amp;t.previousSibling){var e,r,n,i,c=t.previousSibling,a=c.getAttribute(&quot;data-cfemail&quot;);if(a){for(e=&quot;&quot;,r=parseInt(a.substr(0,2),16),n=2;a.length-n;n+=2)i=parseInt(a.substr(n,2),16)^r,e+=String.fromCharCode(i);e=document.createTextNode(e),c.parentNode.replaceChild(e,c)}}}catch(u){}}();/* ]]&gt; */&lt;/script&gt;\nFormat settings, CABAC           : Yes\nFormat settings, ReFrames        : 5 frames\nMuxing mode                      : Container profile=&lt;a class=&quot;__cf_email__&quot; href=&quot;/cdn-cgi/l/email-protection&quot; data-cfemail=&quot;edb8838683829a83add9c3dc&quot;&gt;[email&amp;#160;protected]&lt;/a&gt;&lt;script cf-hash='f9e31' type=&quot;text/javascript&quot;&gt;\n/* &lt;![CDATA[ */!function(){try{var t=&quot;currentScript&quot;in document?document.currentScript:function(){for(var t=document.getElementsByTagName(&quot;script&quot;),e=t.length;e--;)if(t[e].getAttribute(&quot;cf-hash&quot;))return t[e]}();if(t&amp;&amp;t.previousSibling){var e,r,n,i,c=t.previousSibling,a=c.getAttribute(&quot;data-cfemail&quot;);if(a){for(e=&quot;&quot;,r=parseInt(a.substr(0,2),16),n=2;a.length-n;n+=2)i=parseInt(a.substr(n,2),16)^r,e+=String.fromCharCode(i);e=document.createTextNode(e),c.parentNode.replaceChild(e,c)}}}catch(u){}}();/* ]]&gt; */&lt;/script&gt;\nCodec ID                         : V_MPEG4/ISO/AVC\nNominal bit rate                 : 19.0 Mbps\nWidth                            : 1 920 pixels\nHeight                           : 820 pixels\nDisplay aspect ratio             : 2.35:1\nFrame rate                       : 23.976 fps\n\nAudio 1\nFormat                           : AC-3\nFormat/Info                      : Audio Coding 3\nMode extension                   : CM (complete main)\nCodec ID                         : A_AC3\nBit rate mode                    : Constant\nBit rate                         : 640 Kbps\nChannel(s)                       : 6 channels\nChannel positions                : Front: L C R, Side: L R, LFE\nSampling rate                    : 48.0 KHz\nStream size                      : 425 MiB (3%)\nTitle                            : English\n\nAudio 2\nFormat                           : AAC\nFormat/Info                      : Advanced Audio Codec\nFormat version                   : Version 4\nFormat profile                   : LC\nFormat settings, SBR             : No\nCodec ID                         : A_AAC\nChannel(s)                       : 2 channels\nChannel positions                : Front: L R\nSampling rate                    : 48.0 KHz\nTitle                            : Englisch commentary\n\nAudio 3\nFormat                           : AC-3\nFormat/Info                      : Audio Coding 3\nMode extension                   : CM (complete main)\nCodec ID                         : A_AC3\nBit rate mode                    : Constant\nBit rate                         : 448 Kbps\nChannel(s)                       : 6 channels\nChannel positions                : Front: L C R, Side: L R, LFE\nSampling rate                    : 48.0 KHz\nStream size                      : 297 MiB (2%)\nLanguage                         : Polish\n\nText \nFormat                           : UTF-8\nCodec ID                         : S_TEXT/UTF8\nCodec ID/Info                    : UTF-8 Plain Text\n","torrent":{"xt":"urn:btih:141a401f8f90a059564fd427c724a1fbcde40ec0","amp;dn":"From+Paris+with+Love%2A2010%2A%5BBluRay%5D%5B1080p%5D%5BENG%2C+POL%2C+Multisub%5D","amp;tr":["udp%3A%2F%2Ftracker.openbittorrent.com%3A80","udp%3A%2F%2Fopen.demonii.com%3A1337","udp%3A%2F%2Ftracker.coppersurfer.tk%3A6969","udp%3A%2F%2Fexodus.desync.com%3A6969"],"infoHash":"141a401f8f90a059564fd427c724a1fbcde40ec0","infoHashBuffer":{"type":"Buffer","data":[20,26,64,31,143,144,160,89,86,79,212,39,199,36,161,251,205,228,14,192]},"announce":[],"urlList":[]}}